#!OML:ASF E:\id_vita\Project 1\Capture day 1\Session 1\Male1.ASF
:FULLY-SPECIFIED
:DEGREES
1187
root -3.74416 26.7544 0.205907 -30.1631 81.1535 -38.3377
lowerback 11.0577 4.35417 2.72428
upperback -5.20192 6.69213 2.69239
thorax -11.9058 3.13465 -0.0124124
lowerneck 41.0059 -5.67994 10.9141
upperneck -4.1794 -2.00583 -5.85707
head -7.33219 -0.145602 -3.48269
rclavicle -2.90971e-014 -4.6118e-014
rhumerus -53.6733 9.75174 -85.2282
rradius 46.7836
rwrist 8.80362
rhand -34.0177 66.2481
rfingers 7.12502
rthumb -7.19662 36.3905
lclavicle -2.90971e-014 -4.6118e-014
lhumerus -55.5339 -3.41413 87.3516
lradius 36.4782
lwrist -2.04426
lhand -27.4369 34.5235
lfingers 7.12502
lthumb -0.84208 64.5016
rfemur -7.42047 0.14953 29.7152
rtibia 25.641
rfoot -21.8236 -10.184
rtoes -3.54041
lfemur -40.1509 6.51002 -13.3144
ltibia 37.7837
lfoot -14.7551 2.09218
ltoes 38.6578
1188
root -3.81465 26.7538 0.216914 -29.9286 80.9491 -38.1427
lowerback 11.0141 4.39591 2.81065
upperback -5.2347 6.76645 2.71441
thorax -11.9097 3.16525 -0.0491643
lowerneck 40.3698 -5.76075 10.8335
upperneck -2.74307 -2.11362 -5.8019
head -6.76191 -0.149829 -3.42373
rclavicle 3.53837e-014 -7.15625e-015
rhumerus -53.5192 9.44832 -84.9427
rradius 45.8273
rwrist 8.75396
rhand -33.9684 66.2108
rfingers 7.12502
rthumb -7.14909 36.3515
lclavicle 3.53837e-014 -7.15625e-015
lhumerus -55.3548 -3.4736 87.3201
lradius 35.8065
lwrist -2.14465
lhand -27.5631 34.0242
lfingers 7.12502
lthumb -0.963974 64.0018
rfemur -8.05299 0.47556 29.8576
rtibia 26.2612
rfoot -21.9081 -9.93538
rtoes -2.0643
lfemur -40.1179 7.32004 -13.5496
ltibia 39.4158
lfoot -15.06 1.58663
ltoes 38.3698
1189
root -3.87427 26.7545 0.230578 -31.4384 81.7149 -39.5165
lowerback 11.2319 4.1854 2.58189
upperback -5.34414 6.46197 2.69543
thorax -12.1916 3.0297 0.0976352
lowerneck 39.5219 -5.96578 10.8269
upperneck -1.09393 -2.36896 -5.85397
head -6.11773 -0.20922 -3.39391
rclavicle -3.39176e-015 -3.49861e-014
rhumerus -53.6459 9.03874 -84.5684
rradius 44.9231
rwrist 8.82469
rhand -33.9116 66.1781
rfingers 7.12502
rthumb -7.09426 36.317
lclavicle -3.39176e-015 -3.49861e-014
lhumerus -55.346 -3.58648 87.3781
lradius 35.0809
lwrist -2.32839
lhand -27.9428 33.5322
lfingers 7.12502
lthumb -1.3307 63.5078
rfemur -8.39347 0.234694 29.7332
rtibia 26.7981
rfoot -21.9837 -10.3045
rtoes -1.03727
lfemur -39.9525 7.4769 -14.1876
ltibia 41.0366
lfoot -15.2047 0.750863
ltoes 38.1718
1190
root -3.93505 26.7586 0.244352 -31.5832 82.1253 -39.636
lowerback 10.8992 4.08199 2.37676
upperback -5.25084 6.26273 2.67234
thorax -11.9022 2.95769 0.256782
lowerneck 39.2215 -6.0746 10.7094
upperneck -0.0905227 -2.50238 -5.77351
head -5.74722 -0.239037 -3.32565
rclavicle 3.94091e-014 5.56597e-015
rhumerus -53.4134 8.56466 -84.1285
rradius 43.9487
rwrist 9.16655
rhand -33.881 66.1384
rfingers 7.12502
rthumb -7.06467 36.2763
lclavicle 3.94091e-014 5.56597e-015
lhumerus -55.0184 -3.66471 87.3598
lradius 34.4257
lwrist -2.53771
lhand -27.7753 33.626
lfingers 7.12502
lthumb -1.16892 63.6026
rfemur -8.81821 0.158399 29.6063
rtibia 27.2817
rfoot -22.066 -10.4616
rtoes -0.0226777
lfemur -39.8048 7.84481 -14.6924
ltibia 42.6654
lfoot -15.4411 0.0603778
ltoes 37.9666
1191
root -3.99632 26.7602 0.258786 -32.3298 82.2235 -40.419
lowerback 10.7719 4.04156 2.32771
upperback -5.28816 6.20455 2.71797
thorax -11.8789 2.93851 0.35329
lowerneck 38.8814 -6.1395 10.6168
upperneck 0.997368 -2.56472 -5.69671
head -5.34153 -0.231699 -3.27479
rclavicle -6.12505e-015 -3.45885e-014
rhumerus -53.2513 8.28372 -83.7831
rradius 42.8132
rwrist 9.29725
rhand -33.8576 66.0104
rfingers 7.12502
rthumb -7.04207 36.1476
lclavicle -6.12505e-015 -3.45885e-014
lhumerus -54.8491 -3.58572 87.2009
lradius 33.7693
lwrist -2.99444
lhand -26.8396 34.1325
lfingers 7.12502
lthumb -0.265156 64.112
rfemur -9.2993 0.146791 29.7243
rtibia 27.7235
rfoot -22.1467 -10.3436
rtoes 1.29489
lfemur -39.6516 8.32652 -14.8565
ltibia 44.2786
lfoot -15.8096 -0.538773
ltoes 37.7236
